# xmcd CD database file
#
# Track frame offsets:
#	150
#	13074
#	28581
#	40900
#	53219
#	66064
#	77950
#	91450
#	103712
#	119107
#	130693
#	145636
#	158705
#	172329
#	184354
#	199598
#	213286
#	225363
#	239200
#	250715
#	263349
#	278217
#	291604
#	305500
#	317927
#	331225
#
# Disc length: 4603 seconds
#
# Revision: 2
# Processed by: cddbd v1.5.1PL0 Copyright (c) Steve Scherf et al.
# Submitted via: Feurio! 1.68 - http://www.feurio.com
#
DISCID=8411f91a
DTITLE=Various Artist - He Got Out His Big Ten Inch - CD1
DYEAR=2004
DGENRE=blues
TTITLE0=Georgia Tom and Jane Lucas - Terrible Operation Blues
TTITLE1=Lucille Bogan - Coffee Grindin' Blues
TTITLE2=Roosevelt Sykes - Honey Dripper
TTITLE3=Blind Boy Fuller - What's That Smells Like Fish?
TTITLE4=Barrelhouse Annie - If It Don't Fit (Don't Force It)
TTITLE5=Washboard Sam - I'm Gonna Keep My Hair Parted
TTITLE6=Bo Carter - Ram Rod Daddy
TTITLE7=Hannah May - Pussy Cat, Pussy Cat
TTITLE8=Walter Davis - Think You Need a Shot
TTITLE9=Napoleon Fletcher - She Showed It All
TTITLE10=Lonnie Johnson - Wipe It Off
TTITLE11=Lil Johnson - Meat Balls
TTITLE12=Kokomo Arnold - 'Cause You're Dirty
TTITLE13=George Hannah - Boy in the Boat
TTITLE14=Mississippi Sheiks - Driving That Thing
TTITLE15=Louise Johnson - On the Wall
TTITLE16=Arthur McKay - She Squeezed My Lemon
TTITLE17=Big Bill Broonzy - Horny Frog
TTITLE18=Jimmie Gordon - She Sells Good Meat
TTITLE19=Lillie Mae Kirkman - He's Just My Size
TTITLE20=St. Louis Jimmy - Pipe Layin' Blues
TTITLE21=Hunter and Jenkins - Lollypop
TTITLE22=Isabel Sykes - In Here With Your Heavy Stuff
TTITLE23=Kansas Joe - My Wash Woman's Gone
TTITLE24=Buddy Woods - Don't Sell It (Don't Give It Away)
TTITLE25=Kansas City Kitty and Georgia Tom - Show Me What You Got
EXTD=YEAR: 2004
EXTT0=
EXTT1=
EXTT2=
EXTT3=
EXTT4=
EXTT5=
EXTT6=
EXTT7=
EXTT8=
EXTT9=
EXTT10=
EXTT11=
EXTT12=
EXTT13=
EXTT14=
EXTT15=
EXTT16=
EXTT17=
EXTT18=
EXTT19=
EXTT20=
EXTT21=
EXTT22=
EXTT23=
EXTT24=
EXTT25=
PLAYORDER=
